<?xml version="1.0" standalone="no"?>
<!DOCTYPE svg PUBLIC "-//W3C//DTD SVG 20010904//EN"
 "http://www.w3.org/TR/2001/REC-SVG-20010904/DTD/svg10.dtd">
<svg version="1.0" xmlns="http://www.w3.org/2000/svg"
 width="500.000000pt" height="500.000000pt" viewBox="0 0 500.000000 500.000000"
 preserveAspectRatio="xMidYMid meet">

<g transform="translate(0.000000,500.000000) scale(0.100000,-0.100000)"
fill="#000000" stroke="none">
<path d="M1936 2674 c-3 -9 -6 -27 -6 -40 0 -13 -4 -24 -8 -24 -5 0 -8 -30 -8
-67 2 -104 73 -247 140 -283 l26 -13 0 -159 0 -158 49 0 48 0 5 97 c5 85 8 99
28 115 60 48 90 8 90 -119 l0 -93 55 0 55 0 0 124 c0 116 -2 127 -22 149 -40
42 -109 60 -150 40 -17 -8 -38 -11 -55 -6 -16 4 -34 6 -40 5 -7 -2 -13 2 -13
8 0 6 5 8 10 5 6 -3 10 -1 10 4 0 6 -7 11 -16 11 -24 0 -116 63 -153 105 -34
39 -35 46 -31 218 2 94 -1 114 -14 81z"/>
<path d="M1146 2213 c-10 -115 -20 -225 -23 -246 l-6 -38 59 3 59 3 10 127 c6
69 13 129 16 132 3 3 26 -54 51 -127 45 -131 46 -132 78 -135 20 -2 36 2 41
10 5 7 27 69 51 137 48 143 52 141 63 -32 6 -98 10 -117 24 -118 9 0 30 -2 46
-4 57 -8 57 -9 35 241 -12 126 -23 235 -25 242 -3 8 -25 12 -63 12 l-59 0 -53
-136 c-29 -75 -55 -132 -59 -127 -5 4 -29 65 -56 136 l-48 127 -62 0 -62 0
-17 -207z"/>
<path d="M2490 2295 c0 -52 -1 -55 -25 -55 -23 0 -25 -4 -25 -45 0 -41 2 -45
25 -45 25 0 25 -1 25 -80 0 -93 11 -122 54 -143 35 -16 116 -13 129 7 5 8 10
7 17 -4 8 -12 10 -9 6 10 -13 69 -20 88 -52 143 -19 32 -34 60 -34 63 0 2 11
4 25 4 23 0 25 4 25 45 0 43 -1 45 -30 45 -30 0 -30 1 -30 55 l0 55 -55 0 -55
0 0 -55z m129 -237 c1 16 18 7 30 -17 9 -15 6 -18 -17 -17 -23 1 -27 6 -29 31
-2 25 -1 27 7 10 5 -11 9 -14 9 -7z"/>
<path d="M2175 2260 c3 -5 14 -10 23 -10 15 0 15 2 2 10 -20 13 -33 13 -25 0z"/>
<path d="M1821 2240 c-39 -9 -77 -35 -105 -74 -16 -20 -21 -42 -21 -85 0 -100
66 -161 175 -161 57 0 123 28 140 60 9 17 5 22 -29 39 -35 18 -40 19 -52 5
-17 -21 -98 -15 -113 8 -5 9 -8 19 -6 22 3 2 52 6 110 8 104 3 105 3 108 28 4
36 -38 112 -73 131 -39 22 -91 29 -134 19z m89 -90 c10 -19 8 -20 -45 -20 -30
0 -55 4 -55 8 0 35 83 45 100 12z"/>
<path d="M2825 2241 c-42 -10 -65 -25 -100 -60 -24 -27 -30 -41 -33 -95 -4
-60 -2 -65 29 -101 42 -48 83 -65 154 -65 132 0 213 103 170 216 -20 53 -64
89 -125 103 -50 12 -53 12 -95 2z m95 -111 c41 -41 12 -120 -45 -120 -30 0
-75 41 -75 68 0 59 79 93 120 52z"/>
<path d="M3110 2085 l0 -155 50 0 50 0 0 80 c0 119 21 150 95 136 29 -6 34 -3
45 24 7 16 15 30 19 30 4 0 35 -51 70 -112 l64 -113 -49 -94 c-27 -51 -51 -98
-53 -103 -1 -5 24 -8 59 -6 l62 3 114 220 c63 121 114 226 114 232 0 14 -86
18 -106 5 -7 -4 -26 -38 -43 -75 -18 -40 -35 -66 -41 -62 -6 4 -26 38 -45 76
l-35 69 -101 0 c-86 0 -107 -3 -135 -21 l-34 -21 0 21 c0 18 -6 21 -50 21
l-50 0 0 -155z"/>
<path d="M3840 2052 c-49 -16 -68 -83 -32 -115 25 -22 75 -21 95 1 43 47 -5
133 -63 114z"/>
<path d="M2010 1582 c0 -23 -30 -52 -53 -52 -9 0 -19 -4 -22 -10 -4 -6 10 -10
33 -10 36 0 40 3 44 28 3 15 9 35 13 45 4 10 3 17 -4 17 -6 0 -11 -8 -11 -18z"/>
</g>
</svg>
